<mxfile host="app.diagrams.net" modified="2023-07-09T08:21:34.879Z" agent="Mozilla/5.0 (Macintosh; Intel Mac OS X 10_15_7) AppleWebKit/537.36 (KHTML, like Gecko) Chrome/114.0.0.0 Safari/537.36 Edg/114.0.1823.67" version="21.5.0" etag="mq1qQ7Cbc1CgYNc2kaij" type="github">
  <diagram name="Page-1" id="mltn-yOZxDdoD4EfB6ko">
    <mxGraphModel>
      <root>
        <mxCell id="0" />
        <mxCell id="1" parent="0" />
      </root>
    </mxGraphModel>
  </diagram>
</mxfile>
